<svg xmlns="http://www.w3.org/2000/svg" width="1024" height="1024" viewBox="0 0 1024 1024" version="1.1"><path d="" stroke="none" fill="#000000" fill-rule="evenodd"/><path d="M 533.992 70.920 C 516.236 73.385, 497.922 85.433, 488.690 100.721 C 477.105 119.908, 477.694 146.557, 490.104 164.672 C 491.923 167.327, 496.423 172.691, 500.104 176.590 C 508.223 185.192, 510.816 190.043, 512.581 199.937 C 514.536 210.897, 514.379 213.299, 511.500 216.405 C 508.658 219.472, 508.565 219.951, 510.140 223.408 C 511.005 225.307, 510.985 226.622, 510.056 228.864 C 509.122 231.120, 509.106 232.330, 509.989 233.980 C 510.793 235.482, 510.847 237.001, 510.165 238.957 C 509.389 241.183, 509.583 242.429, 511.092 244.910 C 514.090 249.841, 513.629 250.511, 506.250 251.943 C 494.106 254.300, 488.640 257.831, 484.508 265.985 C 482.180 270.578, 481.854 270.799, 472.807 273.930 C 460.828 278.074, 444.864 285.659, 437.279 290.810 C 421.354 301.625, 409.762 320.162, 403.742 344.440 C 400.867 356.033, 400.331 357.294, 397.703 358.653 C 394.003 360.567, 392 359.766, 392 356.374 C 392 353.782, 391.383 350.154, 385.416 317.661 L 382.692 302.821 385.361 300.661 C 393.774 293.851, 387.293 280.048, 377.061 282.982 C 372.505 284.289, 370.158 286.641, 369.405 290.654 C 368.580 295.051, 370.508 299.597, 374.098 301.717 C 377.450 303.697, 377.019 301.037, 380.511 341.228 C 383.380 374.257, 383.687 371.377, 376.238 381.415 C 367.829 392.746, 365.772 400.893, 368.428 412.345 C 370.384 420.779, 371.751 423.412, 379.373 433.426 C 387.813 444.514, 392.197 448.679, 396.915 450.093 C 400.666 451.216, 401.058 451.689, 402.562 456.900 C 405.026 465.430, 410.827 475.695, 415.401 479.617 C 427.729 490.186, 449.811 497.128, 482.989 500.867 L 497.479 502.500 498.204 507.560 C 498.603 510.343, 498.585 513.903, 498.166 515.472 C 497.483 518.027, 496.675 518.497, 490.451 519.966 C 486.628 520.868, 482.375 522.329, 481 523.212 C 479.625 524.095, 475.856 525.352, 472.625 526.005 C 469.394 526.659, 464.219 528.140, 461.125 529.296 C 456.596 530.990, 453.159 531.409, 443.486 531.450 C 431.867 531.498, 431.241 531.613, 424.486 534.935 C 415.665 539.273, 408.571 546.362, 403.693 555.713 C 401.624 559.679, 399.497 563.193, 398.967 563.521 C 398.437 563.848, 394.898 564.376, 391.104 564.695 C 377.690 565.819, 356.292 560.233, 340 551.353 C 331.318 546.621, 328.743 544.160, 329.465 541.285 C 330.216 538.292, 327.800 532.673, 324.883 530.631 C 323.331 529.544, 320.463 529, 316.277 529 C 312.825 529, 310 528.576, 310 528.058 C 310 526.629, 299.210 518.641, 293 515.473 C 288.547 513.202, 286.065 512.640, 279.960 512.522 C 275.813 512.443, 271.875 512.041, 271.210 511.630 C 270.544 511.218, 270 508.842, 270 506.348 C 270 502.399, 269.318 500.936, 264.705 495 C 250.189 476.318, 229.707 456.887, 222.151 454.629 C 217.874 453.350, 201.978 446.446, 194.257 442.513 C 187.491 439.066, 184.117 443.737, 183.235 457.775 C 182.642 467.208, 184.544 485.853, 186.611 490.872 C 189.358 497.542, 212.897 519.391, 228.153 529.434 C 231.263 531.480, 236.663 534.133, 240.153 535.328 L 246.500 537.501 246.654 543.753 C 246.843 551.444, 248.996 554.360, 260 561.828 C 267.237 566.740, 279.336 572.998, 281.598 572.999 C 282.202 573, 283.396 574.780, 284.250 576.955 C 286.557 582.828, 291.005 585.237, 298.099 584.455 C 303.666 583.842, 303.753 583.875, 313.099 590.025 C 342.756 609.540, 377.456 619.404, 405 616.148 C 409.815 615.579, 413.886 615.521, 414.391 616.013 C 414.912 616.521, 414.809 620.334, 414.144 625.191 C 413.519 629.761, 412.329 638.436, 411.501 644.470 C 409.373 659.974, 407.756 695.221, 408.494 710 C 409.219 724.502, 410.492 732.044, 413.074 737.128 C 414.832 740.590, 423.362 749, 425.115 749 C 425.574 749, 426.574 750.237, 427.338 751.750 C 428.406 753.862, 428.875 762.621, 429.361 789.500 C 430.006 825.155, 430.833 838.329, 433.596 857 C 437.473 883.197, 441.507 898.027, 448.826 913 C 452.605 920.731, 454.963 923.999, 461.485 930.549 C 470.610 939.712, 477.264 943.864, 489.400 947.966 C 540.191 965.135, 589.924 946.343, 608.084 903.122 C 617.151 881.541, 622.380 820.802, 618.876 777.762 C 617.345 758.955, 618.042 756.539, 627.443 748.082 C 628.921 746.752, 631.035 743.892, 632.140 741.726 C 636.063 734.036, 636.996 725.861, 637.671 693.250 C 638.404 657.852, 639.417 653.812, 642.434 674.250 C 646.273 700.245, 645.412 745.400, 640.971 751 C 635.134 758.362, 635.145 758.310, 636.172 774.155 C 636.351 776.915, 635.544 779.119, 632.877 783.155 C 628.196 790.238, 627 794.017, 627 801.726 C 627 807.497, 627.299 808.453, 629.923 811.077 C 632.160 813.314, 633.767 814, 636.768 814 C 641.852 814, 643.375 812.128, 644.793 804.134 C 645.414 800.633, 646.625 796.696, 647.484 795.384 C 649.534 792.255, 653.546 792.177, 654.370 795.250 C 656.250 802.265, 653.961 813.954, 649.532 819.957 C 648.139 821.844, 647 824.626, 647 826.138 C 647 831.944, 655.657 833.956, 662.025 829.629 C 663.944 828.325, 667.536 826.933, 670.007 826.536 C 674.391 825.832, 680.792 821.772, 684 817.662 C 684.825 816.605, 687.863 811.865, 690.750 807.129 C 695.947 798.604, 696 798.435, 696 790.384 C 696 785.711, 696.638 780.443, 697.500 778 C 699.421 772.555, 699.388 769.351, 697.311 759.687 C 695.821 752.750, 695.764 750.224, 696.828 738.164 C 699.586 706.901, 697.507 668.735, 691.447 639.396 C 689.796 631.406, 685.505 616.913, 681.508 605.835 C 679.093 599.138, 679.075 598.870, 680.636 592.774 C 684.346 578.292, 680.433 563.483, 670.386 553.981 C 664.210 548.140, 660.016 546.135, 651.434 544.919 C 645.822 544.124, 643.266 544.345, 630.933 546.686 C 628.948 547.063, 627.176 546.157, 623.110 542.686 C 616.365 536.929, 605.397 531.429, 596.500 529.343 C 591.877 528.259, 588.481 526.772, 586.500 524.963 C 582.840 521.622, 578.646 519.469, 574 518.546 C 566.591 517.074, 567 517.690, 567 508.012 L 567 499.159 569.750 498.639 C 571.263 498.353, 576.100 497.838, 580.500 497.493 C 597.159 496.188, 622.738 489.746, 633.928 484.037 C 642.536 479.645, 655.032 470.770, 659.093 466.165 C 663.895 460.717, 666.464 456.014, 668.027 449.807 C 669.136 445.403, 669.241 445.316, 676.062 443.119 C 684.711 440.334, 688.085 437.518, 691.883 429.918 C 697.068 419.541, 698.282 411.426, 697.748 390.712 C 697.242 371.086, 696.088 365.175, 691.542 358.912 C 690.181 357.035, 688.342 354.513, 687.456 353.307 C 685.674 350.882, 685.905 347.074, 690.019 311 C 693.219 282.943, 692.681 285.314, 696.001 284.650 C 699.379 283.974, 702 279.751, 702 274.984 C 702 270.815, 700.540 268.330, 697.020 266.510 C 692.377 264.109, 688.256 264.591, 684.923 267.923 C 681.037 271.809, 680.877 277.512, 684.531 281.855 L 687.063 284.863 682.445 308.182 C 675.535 343.077, 675.047 345, 673.112 345 C 671.794 345, 671.173 343.295, 670.170 336.919 C 667.196 318.021, 658.535 301.840, 645.762 291.321 C 638.370 285.234, 621.203 276.711, 608 272.575 L 596.499 268.972 593.573 263.383 C 590.156 256.857, 585.909 253.746, 578 251.978 C 574.975 251.302, 571.938 250.594, 571.250 250.405 C 570.516 250.204, 570 248.416, 570 246.078 C 570 243.887, 569.496 240.988, 568.880 239.637 C 568 237.704, 568.079 236.726, 569.250 235.053 C 571.142 232.352, 570.667 221.790, 568.514 218.717 C 566.458 215.781, 566.612 210.862, 569.032 202.128 C 572.066 191.180, 574.295 187.594, 584.998 176.454 C 596.391 164.594, 601.890 154.753, 604.528 141.500 C 607.861 124.757, 601.971 104.932, 589.213 89.954 C 584.192 84.060, 571.988 76.399, 563.194 73.621 C 554.562 70.894, 542.329 69.763, 533.992 70.920" stroke="none" fill="#78d1c9" fill-rule="evenodd"/></svg>